<svg width="49" height="49" viewBox="0 0 49 49" fill="none" xmlns="http://www.w3.org/2000/svg">
<path d="M11.7964 24.7019H13.6112M0.907471 30.2949L7.25932 26.5662M0.907471 20.9733L8.16673 22.8376M13.5749 9.84339L23.3567 7.02829C23.5009 6.98162 23.6547 6.97605 23.8018 7.01216C23.9488 7.04828 24.0835 7.12473 24.1915 7.23336C24.3056 7.33614 24.3921 7.46719 24.443 7.61403C24.4938 7.76087 24.5072 7.91863 24.4819 8.0723L22.4856 18.5311C22.3767 18.2514 22.2678 17.9531 22.1771 17.6548C21.599 15.4895 20.3737 13.5653 18.6739 12.1537C16.9742 10.7421 14.8859 9.91447 12.7038 9.78746C10.5216 9.91447 8.4333 10.7421 6.73358 12.1537C5.03386 13.5653 3.80852 15.4895 3.23043 17.6548C3.13969 17.9718 3.0308 18.2514 2.92192 18.5497L0.925619 8.0723C0.900336 7.91863 0.913745 7.76087 0.96457 7.61403C1.01539 7.46719 1.10195 7.33614 1.21599 7.23336C1.32402 7.12473 1.45875 7.04828 1.60577 7.01216C1.7528 6.97605 1.90662 6.98162 2.0508 7.02829L11.8327 9.84339M15.426 29.9779C13.6345 30.4007 11.773 30.4007 9.98154 29.9779M24.5001 30.2949L18.1482 26.5662M24.5001 20.9733L17.2408 22.8376" stroke="#CF550F" stroke-linecap="round" stroke-linejoin="round"/>
<g clip-path="url(#clip0_55_101)">
<path d="M41.7407 26.1002V29.8288C41.7407 30.3232 41.9319 30.7974 42.2723 31.1471C42.6126 31.4967 43.0742 31.6931 43.5556 31.6931H44.463M44.463 31.6931C45.4256 31.6931 46.3488 31.3003 47.0295 30.601C47.7102 29.9018 48.0926 28.9534 48.0926 27.9645V22.3716C48.0926 21.8771 47.9014 21.4029 47.561 21.0533C47.2207 20.7037 46.7591 20.5073 46.2778 20.5073H43.5556C42.9812 20.5067 42.4152 20.3661 41.9041 20.0971C40.1714 19.1682 38.2506 18.6701 36.2963 18.6429C34.3297 18.6643 32.3958 19.1625 30.6522 20.0971C30.1504 20.3561 29.5985 20.4963 29.037 20.5073H26.3148C25.8335 20.5073 25.3719 20.7037 25.0315 21.0533C24.6912 21.4029 24.5 21.8771 24.5 22.3716V27.9645C24.5 28.9534 24.8824 29.9018 25.5631 30.601C26.2438 31.3003 27.167 31.6931 28.1296 31.6931M44.463 31.6931L43.9004 34.6201C43.5543 36.4306 42.6068 38.0614 41.2198 39.2337C39.8328 40.406 38.0924 41.0469 36.2963 41.0469C34.5002 41.0469 32.7598 40.406 31.3728 39.2337C29.9858 38.0614 29.0383 36.4306 28.6922 34.6201L28.1296 31.6931M28.1296 31.6931H29.037C29.5184 31.6931 29.98 31.4967 30.3203 31.1471C30.6606 30.7974 30.8519 30.3232 30.8519 29.8288V26.1002M35.3889 35.4217H37.2037" stroke="#CF550F" stroke-linecap="round" stroke-linejoin="round"/>
</g>
<g clip-path="url(#clip1_55_101)">
<path d="M29.4954 8.01474C30.2217 8.41946 31.1403 8.12302 31.547 7.35262C31.9538 6.58222 31.6948 5.6296 30.9685 5.22488C30.2421 4.82016 29.3236 5.1166 28.9168 5.887C28.51 6.6574 28.769 7.61002 29.4954 8.01474Z" fill="#9DED98"/>
<path d="M33.041 7.1019C33.7673 7.50662 34.6859 7.21018 35.0927 6.43978C35.4995 5.66938 35.2404 4.71675 34.5141 4.31203C33.7878 3.90731 32.8692 4.20376 32.4624 4.97416C32.0556 5.74456 32.3147 6.69718 33.041 7.1019Z" fill="#9DED98"/>
<path d="M36.1975 8.86069C36.9238 9.26541 37.8424 8.96897 38.2492 8.19857C38.656 7.42817 38.3969 6.47554 37.6706 6.07082C36.9443 5.6661 36.0257 5.96255 35.6189 6.73295C35.2121 7.50335 35.4712 8.45597 36.1975 8.86069Z" fill="#9DED98"/>
<path d="M37.3862 12.4116C38.1126 12.8163 39.0311 12.5199 39.4379 11.7495C39.8447 10.9791 39.5857 10.0264 38.8593 9.62173C38.133 9.21701 37.2144 9.51345 36.8076 10.2838C36.4009 11.0543 36.6599 12.0069 37.3862 12.4116Z" fill="#9DED98"/>
<path d="M35.4073 13.3742C35.2502 12.5501 35.1225 11.8507 34.9601 11.0236C34.8772 10.5874 34.7259 10.1132 34.4284 9.7741C34.3823 9.71953 34.3333 9.67055 34.2813 9.62715C34.1616 9.53155 34.0195 9.4524 33.8828 9.37619C33.746 9.29998 33.6039 9.22084 33.4524 9.17252C33.3887 9.15144 33.322 9.13593 33.2523 9.12601C32.8134 9.05474 32.3492 9.18603 31.9428 9.34957C31.1846 9.66368 30.5443 9.93514 29.7809 10.2463C28.7058 10.5933 27.4316 10.9304 26.9914 12.151C26.8434 12.8052 26.9299 13.5827 27.5336 14.1285C27.8734 14.4262 29.2729 14.78 30.5775 15.5069L30.6722 15.5597C31.9768 16.2866 33.0317 17.2932 33.4569 17.4291C34.2315 17.6513 34.916 17.2961 35.3662 16.8176C36.1303 15.7702 35.7105 14.4892 35.4073 13.3742Z" fill="#0A0075"/>
</g>
<g clip-path="url(#clip2_55_101)">
<path d="M22.8611 41.2416C22.1991 40.7337 21.2486 40.8911 20.738 41.5933C20.2275 42.2955 20.3502 43.2765 21.0123 43.7845C21.6743 44.2924 22.6248 44.135 23.1354 43.4328C23.6459 42.7306 23.5232 41.7496 22.8611 41.2416Z" fill="#9DED98"/>
<path d="M19.2244 41.6204C18.5624 41.1125 17.6119 41.2699 17.1013 41.9721C16.5907 42.6743 16.7135 43.6553 17.3755 44.1633C18.0376 44.6712 18.9881 44.5138 19.4987 43.8116C20.0092 43.1094 19.8864 42.1284 19.2244 41.6204Z" fill="#9DED98"/>
<path d="M16.3477 39.4129C15.6857 38.9049 14.7352 39.0624 14.2246 39.7646C13.714 40.4668 13.8368 41.4478 14.4988 41.9557C15.1608 42.4637 16.1114 42.3063 16.622 41.6041C17.1325 40.9019 17.0097 39.9209 16.3477 39.4129Z" fill="#9DED98"/>
<path d="M15.6693 35.7232C15.0072 35.2152 14.0567 35.3727 13.5461 36.0749C13.0356 36.7771 13.1583 37.7581 13.8204 38.266C14.4824 38.774 15.4329 38.6166 15.9435 37.9144C16.454 37.2122 16.3313 36.2312 15.6693 35.7232Z" fill="#9DED98"/>
<path d="M17.7625 35.0633C17.8025 35.9021 17.8308 36.6131 17.8756 37.4556C17.8964 37.8994 17.9796 38.3911 18.2265 38.7707C18.2645 38.8315 18.3061 38.8873 18.3515 38.9379C18.4565 39.0502 18.586 39.1496 18.7107 39.2452C18.8353 39.3409 18.9648 39.4402 19.1079 39.5104C19.1681 39.5407 19.2319 39.5659 19.2994 39.5861C19.7238 39.7215 20.2016 39.6603 20.6266 39.5586C21.4209 39.3599 22.0927 39.186 22.8918 38.991C24.0043 38.8068 25.3124 38.6617 25.9192 37.5189C26.1574 36.8935 26.1808 36.1113 25.66 35.4818C25.3654 35.137 24.0301 34.5798 22.841 33.6674L22.7547 33.6012C21.5656 32.6888 20.6629 31.5366 20.2611 31.3393C19.5257 31.0048 18.7986 31.255 18.286 31.6619C17.383 32.5854 17.6188 33.9151 17.7625 35.0633Z" fill="#0A0075"/>
</g>
<defs>
<clipPath id="clip0_55_101">
<rect width="25.4074" height="26.1003" fill="white" transform="translate(23.5925 16.7787)"/>
</clipPath>
<clipPath id="clip1_55_101">
<rect width="14.453" height="15.1435" fill="white" transform="matrix(0.873542 0.486748 -0.466926 0.884297 30.6636 0)"/>
</clipPath>
<clipPath id="clip2_55_101">
<rect width="14.5045" height="15.0909" fill="white" transform="matrix(-0.793363 -0.608749 0.588081 -0.808802 20.5815 49)"/>
</clipPath>
</defs>
</svg>
